<svg xmlns="http://www.w3.org/2000/svg" width="512" height="512"><path xmlns="http://www.w3.org/2000/svg" d="M464.866 415.6H47.134C21.378 415.6 0 394.796 0 368.467V143.533C0 117.733 20.848 96.4 47.134 96.4h417.732c25.756 0 47.134 20.804 47.134 47.133v224.934c0 25.8-20.848 47.133-47.134 47.133zM47.134 126.4c-9.46 0-17.134 7.657-17.134 17.133v224.934c0 9.48 7.676 17.133 17.134 17.133h417.732c9.46 0 17.134-7.657 17.134-17.133V143.533c0-9.48-7.676-17.133-17.134-17.133H47.134z" fill="#1c69d4" data-original="#000000"/><g xmlns="http://www.w3.org/2000/svg"><path d="M95.317 188.783c-26.017 0-47.117 21.05-47.117 47.117v68.3c0 8.284 6.716 15 15 15s15-6.716 15-15v-17.134h34.267V304.2c0 8.284 6.716 15 15 15s15-6.716 15-15v-68.283c0-25.989-21.145-47.134-47.15-47.134zM78.2 257.066V235.9c0-9.443 7.633-17.117 17.133-17.117 9.447 0 17.134 7.687 17.134 17.134v21.149H78.2zM239.934 192.8c-8.284 0-15 6.716-15 15v68.283c0 9.447-7.687 17.134-17.149 17.134-9.435 0-17.117-7.631-17.117-17.117v-68.3c0-8.284-6.716-15-15-15s-15 6.716-15 15v68.3c0 26.027 21.054 47.117 47.133 47.117 25.989 0 47.134-21.145 47.134-47.134V207.8c-.001-8.284-6.717-15-15.001-15zM416.667 188.783h-.017c-26.016 0-47.117 21.051-47.117 47.117v40.2c0 26.027 21.055 47.117 47.134 47.117 25.801 0 47.133-20.847 47.133-47.134v-40.166c0-25.921-20.954-47.134-47.133-47.134zm17.133 87.3c0 9.378-7.575 17.134-17.149 17.134-9.436 0-17.117-7.632-17.117-17.117v-40.2c0-9.473 7.67-17.117 17.117-17.117h.017c9.44 0 17.133 7.638 17.133 17.134v40.166zM344.366 192.8H280.1c-8.284 0-15 6.716-15 15s6.716 15 15 15h17.134v81.4c0 8.284 6.716 15 15 15s15-6.716 15-15v-81.4h17.133c8.284 0 15-6.716 15-15s-6.717-15-15.001-15z" fill="#1c69d4" data-original="#000000"/></g></svg>