<svg xmlns="http://www.w3.org/2000/svg" viewBox="0 0 1158.29 300"><title>Логотип</title><path d="M460,580V820H120V580H460m30-30H90V850H490V550Z" transform="translate(-90 -550)"/><path d="M206.9,665.6v24h58.4v35.6H206.9V770H159.7V630H273.5v35.6Z" transform="translate(-90 -550)"/><path d="M380.1,696.2h41v59.2c-17,11.6-40.39,17.8-61,17.8-45.19,0-78.19-30.2-78.19-73.2s33-73.2,79.19-73.2c27.6,0,49.8,9.6,64,27l-30.2,26.6c-8.8-10.2-19-15.4-31.4-15.4-20.79,0-34,13.4-34,35,0,21,13.2,35,33.4,35a43.86,43.86,0,0,0,17.19-3.4Z" transform="translate(-90 -550)"/><path d="M552.5,758.8l15.2-34.4c13.2,7.8,30.8,12.8,46.2,12.8,13.4,0,18.2-2.8,18.2-7.6,0-17.6-77.4-3.4-77.4-55.6,0-26,21.8-47.2,65.2-47.2,18.8,0,38.2,4,52.8,12.2l-14.2,34.2c-13.8-7-26.8-10.4-39-10.4-13.8,0-18.2,4-18.2,8.8,0,16.8,77.4,2.8,77.4,54.4,0,25.6-21.8,47.2-65.2,47.2C590.1,773.2,566.5,767.4,552.5,758.8Z" transform="translate(-90 -550)"/><path d="M809.1,734.4V770H692.7V630H806.5v35.6H739.1V682h59.2v34H739.1v18.4Z" transform="translate(-90 -550)"/><path d="M974.9,630,915.7,770H869.3L810.1,630h50.8l33.4,81.8L928.5,630Z" transform="translate(-90 -550)"/><path d="M1095.9,734.4V770H979.5V630h113.8v35.6h-67.4V682h59.2v34h-59.2v18.4Z" transform="translate(-90 -550)"/><path d="M1174.09,734.8h-12.8V770H1114.1V630h67.4c39,0,63.79,20.4,63.79,52.8,0,20.2-9.6,35.4-26.4,44l29.4,43.2h-50.4Zm4.41-68.4h-17.21v32.8h17.21c13,0,19.2-6.2,19.2-16.4S1191.5,666.4,1178.5,666.4Z" transform="translate(-90 -550)"/></svg>