<svg xmlns="http://www.w3.org/2000/svg" viewBox="0 0 496 496"><title>coding</title><rect x="392" y="392" width="64" height="64" style="fill:#1c69d4"/><rect x="216" y="360" width="32" height="128" style="fill:#1c69d4"/><rect x="48" y="16" width="32" height="112" style="fill:#1c69d4"/><path d="M305.54,368H256V352H208v16H160v32H112a64,64,0,0,1,0-128H384a112,112,0,0,0,0-224H256V40a24,24,0,0,0-24-24H128V0H0V144H128V128H232a24,24,0,0,0,24-24V96H384a64,64,0,0,1,0,128H112a112,112,0,0,0,0,224h48v32h48v16h48V480h49.54l40-16H496V384H345.54ZM240,416H224V400h16Zm-16,16h16v16H224Zm16-64v16H224V368ZM112,128H16V16h96Zm128-24a8,8,0,0,1-8,8H128V32H232a8,8,0,0,1,8,8ZM112,432a96,96,0,0,1,0-192H384a80,80,0,0,0,0-160H256V64H384a96,96,0,0,1,0,192H112a80,80,0,0,0,0,160h48v16Zm64,32V384h32v80Zm48,16V464h16v16Zm32-96h40v48h16V387.82l24,9.6v53.16l-24,9.6V448H296v16H256Zm128,64H352V400h32Zm16-48h48v48H400Zm80,48H464V400h16Z" style="fill:#333"/><rect x="32" y="96" width="64" height="16" style="fill:#333"/><rect x="32" y="32" width="64" height="16" style="fill:#333"/><rect x="32" y="64" width="64" height="16" style="fill:#333"/></svg>