<svg xmlns="http://www.w3.org/2000/svg" viewBox="0 0 290.62 290.63"><title>day-service</title><circle cx="145.31" cy="145.31" r="89.06" style="fill:#1c69d4"/><path d="M145.31,0A145.56,145.56,0,0,0,43.59,41.59L37.42,8.51l-9.21,1.73,8.48,45.43,47.17,5.24,1-9.31L50.68,47.79A136.12,136.12,0,0,1,145.31,9.37c75,0,135.94,61,135.94,135.94a135.65,135.65,0,0,1-46.87,102.57v-8.82a10.43,10.43,0,0,1-9.38-5.79l-1.93-3.85a14.07,14.07,0,0,0-2.76-27.86H201.56v46.88h9.38V226.11l5.68,11.35a19.69,19.69,0,0,0,17.16,10.93,135.28,135.28,0,0,1-88.47,32.86c-74.95,0-135.93-61-135.93-135.94a135.6,135.6,0,0,1,6.26-40.78l-8.95-2.81A145.17,145.17,0,0,0,0,145.31c0,80.13,65.18,145.32,145.31,145.32s145.31-65.19,145.31-145.32S225.44,0,145.31,0Zm65.63,220.31v-9.37h9.37a4.69,4.69,0,1,1,0,9.37Z" transform="translate(0)" style="fill:#333"/><path d="M25.1,81.88l-8.28-4.39c-1.83,3.45-3.37,6.63-4.71,9.69l8.59,3.76C22,88.09,23.39,85.12,25.1,81.88Z" transform="translate(0)" style="fill:#333"/><path d="M110.07,158.18,53.19,192.31a22.64,22.64,0,0,0,11.64,42.06h80.48V225H64.83A13.27,13.27,0,0,1,58,200.35l56.89-34.14a62.93,62.93,0,0,0,30.41-53.71,51.56,51.56,0,0,0-103.12,0v9.38h9.37V112.5a42.19,42.19,0,0,1,84.38,0A53.53,53.53,0,0,1,110.07,158.18Z" transform="translate(0)" style="fill:#333"/><path d="M210.35,63.22l-8.2-4.56-45.47,81.85a15.86,15.86,0,0,0,13.87,23.55h45.08v28.13H225V164.06h42.19v-9.37H225V60.94h-9.37v93.75H170.55a6.48,6.48,0,0,1-5.67-9.63Z" transform="translate(0)" style="fill:#333"/><polygon points="154.69 248.44 164.06 248.44 164.06 229.69 182.81 229.69 182.81 248.44 192.19 248.44 192.19 201.56 182.81 201.56 182.81 220.31 164.06 220.31 164.06 201.56 154.69 201.56 154.69 248.44" style="fill:#333"/></svg>