<svg xmlns="http://www.w3.org/2000/svg" viewBox="0 0 496 496"><title>discount</title><path d="M248,0A247.61,247.61,0,0,0,91.18,55.87L42.62,7.31A25,25,0,0,0,7.31,42.62L55.87,91.18A247.61,247.61,0,0,0,0,248C0,384.75,111.25,496,248,496S496,384.75,496,248,384.75,0,248,0ZM16,25a9,9,0,0,1,15.31-6.35L76.69,64H64V76.69L18.62,31.31A9,9,0,0,1,16,25Zm0,223A231.55,231.55,0,0,1,64,106.78v88.53L332.63,464A230.7,230.7,0,0,1,248,480C120.08,480,16,375.92,16,248ZM348.43,457.11,80,188.69V115.31l5.38,5.38a25.07,25.07,0,0,0,10.73,6.2c0,.38-.11.73-.11,1.11a32.34,32.34,0,1,0,4.66-16.39,8.92,8.92,0,0,1-4-2.23L80,92.69V80H188.69l37.65,37.66,11.32-11.32L195.31,64H106.78A231.55,231.55,0,0,1,248,16c127.92,0,232,104.08,232,232A230.7,230.7,0,0,1,464,332.63l-50.29-50.29-11.32,11.32,54.77,54.77A233.49,233.49,0,0,1,348.43,457.11ZM112,128a16,16,0,1,1,16,16A16,16,0,0,1,112,128Z"/><path d="M312,344c-75,0-136-61-136-136S237,72,312,72s136,61,136,136S387,344,312,344Z" style="fill:#1c69d4"/><path d="M272,200a32,32,0,1,1,32-32A32,32,0,0,1,272,200Zm0-48a16,16,0,1,0,16,16A16,16,0,0,0,272,152Z"/><path d="M352,280a32,32,0,1,1,32-32A32,32,0,0,1,352,280Zm0-48a16,16,0,1,0,16,16A16,16,0,0,0,352,232Z"/><path d="M242.34,266.34l128-128,11.31,11.31-128,128Z"/></svg>