<svg xmlns="http://www.w3.org/2000/svg" viewBox="0 0 496 496"><title>manufacturer-warranty</title><path d="M422.41,168.09c-7.14,0-14-7.22-20.59-14.25-2.84-3-7.36-7.79-9.82-9.35-2.46,1.56-7,6.36-9.82,9.35-8.36,8.84-17,18-26.2,12.67-9.39-5.43-5.69-17.72-2.12-29.62,1.11-3.7,2.85-9.52,3.12-12.45-2.61-1.17-8.28-2.49-11.89-3.32-12.33-2.88-25.09-5.84-25.09-17s12.76-14.1,25.11-17c3.59-.84,9.26-2.17,11.87-3.32-.26-2.93-2-8.77-3.12-12.46-3.57-11.89-7.26-24.19,2.12-29.61,9.16-5.33,17.84,3.81,26.2,12.68,2.84,3,7.36,7.78,9.82,9.34,2.46-1.56,7-6.36,9.82-9.36,8.36-8.84,17-18,26.2-12.67,9.39,5.43,5.69,17.73,2.12,29.62C429,75.13,427.29,81,427,83.88c2.61,1.17,8.28,2.49,11.88,3.32,12.34,2.88,25.1,5.85,25.1,17s-12.76,14.09-25.1,17c-3.6.84-9.27,2.17-11.88,3.32.26,2.93,2,8.77,3.12,12.45,3.57,11.9,7.26,24.2-2.12,29.62A11,11,0,0,1,422.41,168.09ZM392.82,64.27Z" style="fill:#1c69d4"/><path d="M80,160h48v88H80Z" style="fill:#1c69d4"/><path d="M144,192h48v56H144Z" style="fill:#1c69d4"/><path d="M208,128h48V248H208Z" style="fill:#1c69d4"/><path d="M489.76,319.83a23.9,23.9,0,0,0-17.76-40H424l-.21,0c.06-1.06.21-2.12.21-3.19V223.83a40.05,40.05,0,0,0-40-40h-8V233a54.57,54.57,0,0,1-30.3,49.05,55.84,55.84,0,0,1-9.7,3.65V136H320V287.83H288v-16H192v144h96v-16h32V472a8,8,0,0,1-8,8H24a8,8,0,0,1-8-8V72a8,8,0,0,1,8-8H96V80H32V464H304V433H288v15H48V96H97.47A24,24,0,0,0,120,112h96a24,24,0,0,0,22.53-16H288V256h16V80H240V64h72a8,8,0,0,1,8,8h16a24,24,0,0,0-24-24H238.53A24,24,0,0,0,216,32h-8.81a40,40,0,0,0-78.38,0H120A24,24,0,0,0,97.47,48H24A24,24,0,0,0,0,72V472a24,24,0,0,0,24,24H312a24,24,0,0,0,24-24V404.79l26.29,13.14a56.4,56.4,0,0,0,25,5.9H472a23.9,23.9,0,0,0,17.76-40,23.63,23.63,0,0,0,0-32,23.63,23.63,0,0,0,0-32ZM112,56a8,8,0,0,1,8-8h24V40a24,24,0,0,1,48,0v8h24a8,8,0,0,1,8,8V88a8,8,0,0,1-8,8H120a8,8,0,0,1-8-8ZM480,367.83a8,8,0,0,1-8,8H424a8,8,0,0,1,0-16h48A8,8,0,0,1,480,367.83Zm-56-24a8,8,0,0,1,0-16h48a8,8,0,0,1,0,16Zm0-48h48a8,8,0,0,1,0,16H424a7.92,7.92,0,0,1-7.78-6.88,57.44,57.44,0,0,0,3.89-8A7.4,7.4,0,0,1,424,295.83Zm-152,104H256V320H240v79.83H208v-112h32V304h16V287.83h16Zm97.44,3.79-39.55-19.79H288v-80h33.16a71.26,71.26,0,0,0,31.7-7.48A70.44,70.44,0,0,0,392,233V201.2a24,24,0,0,1,16,22.63v52.83A40.18,40.18,0,0,1,388.57,311l-16.69,10,8.23,13.72,16.69-10a55.24,55.24,0,0,0,8.28-6.24c.37.48.74.94,1.15,1.39a23.63,23.63,0,0,0,0,32,23.63,23.63,0,0,0,0,32,23.27,23.27,0,0,0-4.77,24H387.32A40.26,40.26,0,0,1,369.44,403.62ZM472,407.83H424a8,8,0,0,1,0-16h48a8,8,0,0,1,0,16Z"/><path d="M64,416H80v16H64Z"/><path d="M96,416h80v16H96Z"/><path d="M64,384H80v16H64Z"/><path d="M96,384h80v16H96Z"/><path d="M64,352H80v16H64Z"/><path d="M96,352h80v16H96Z"/><path d="M64,320H80v16H64Z"/><path d="M96,320h80v16H96Z"/><path d="M64,288H80v16H64Z"/><path d="M96,288h80v16H96Z"/><path d="M64,240H272v16H64Z"/><path d="M128,64h16V80H128Z"/><path d="M192,64h16V80H192Z"/></svg>