<svg xmlns="http://www.w3.org/2000/svg" viewBox="0 0 496 497.33"><title>parts-warehouse</title><rect x="288" y="361.33" width="64" height="40" style="fill:#1c69d4"/><rect x="144" y="361.33" width="64" height="40" style="fill:#1c69d4"/><rect x="288" y="449.33" width="64" height="40" style="fill:#1c69d4"/><rect x="216" y="233.33" width="64" height="40" style="fill:#1c69d4"/><rect x="216" y="321.33" width="64" height="40" style="fill:#1c69d4"/><rect x="144" y="449.33" width="64" height="40" style="fill:#1c69d4"/><path d="M456,172.7H440V488H408V214.53A23.94,23.94,0,0,0,400,168H112a23.94,23.94,0,0,0-8,46.53V488H72V172.7H56V488H40v16H472V488H456ZM240,360H200a8,8,0,0,1-8-8V256a8,8,0,0,1,8-8H312a8,8,0,0,1,8,8v96a8,8,0,0,1-8,8H240Zm72-128H200a24,24,0,0,0-24,24v96a23.85,23.85,0,0,0,1.47,8H128a23.85,23.85,0,0,0-8,1.47V216H392V361.47a23.85,23.85,0,0,0-8-1.47H334.53a23.85,23.85,0,0,0,1.47-8V256A24,24,0,0,0,312,232ZM112,184H400a8,8,0,0,1,0,16H112a8,8,0,0,1,0-16Zm16,304a8,8,0,0,1-8-8V384a8,8,0,0,1,8-8H240a8,8,0,0,1,8,8v96a8,8,0,0,1-8,8Zm144,0a8,8,0,0,1-8-8V384a8,8,0,0,1,8-8H384a8,8,0,0,1,8,8v96a8,8,0,0,1-8,8Z" transform="translate(-8 -6.67)"/><rect x="480" y="481.33" width="16" height="16"/><rect y="481.33" width="16" height="16"/><path d="M256,152a32,32,0,1,0-32-32A32,32,0,0,0,256,152Zm0-48a16,16,0,1,1-16,16A16,16,0,0,1,256,104Z" transform="translate(-8 -6.67)"/><path d="M478.84,194.9a25,25,0,0,1-12.94-3.63L256,65.33,46.1,191.27A25.16,25.16,0,0,1,8,169.71a25.24,25.24,0,0,1,12.22-21.56L256,6.67,491.79,148.15A25.25,25.25,0,0,1,504,169.71a25.26,25.26,0,0,1-25.16,25.19Z" transform="translate(-8 -6.67)" style="fill:#1c69d4"/></svg>