<svg xmlns="http://www.w3.org/2000/svg" viewBox="0 0 496 496"><title>parts-warehouse-2</title><path d="M456,424H392V384h64Z" transform="translate(-8 -8)" style="fill:#1c69d4"/><path d="M280,424H216V384h64Z" transform="translate(-8 -8)" style="fill:#1c69d4"/><path d="M456,248H392V208h64Z" transform="translate(-8 -8)" style="fill:#1c69d4"/><path d="M280,248H216V208h64Z" transform="translate(-8 -8)" style="fill:#1c69d4"/><path d="M456,72H392V32h64Z" transform="translate(-8 -8)" style="fill:#1c69d4"/><path d="M280,72H216V32h64Z" transform="translate(-8 -8)" style="fill:#1c69d4"/><path d="M488,184a16,16,0,0,0,16-16V40a16,16,0,0,0-16-16H360a16,16,0,0,0-16,16v96H328V40a16,16,0,0,0-16-16H184a16,16,0,0,0-16,16v96H115.63A31.65,31.65,0,0,0,120,120V88h16a16,16,0,0,0,16-16V56a16,16,0,0,0-16-16H119.19A40.08,40.08,0,0,0,80,8H48A40,40,0,0,0,8,48V92.22a65.35,65.35,0,0,0,32,56.32v.28a63.14,63.14,0,0,0-16,41.8V448a23.86,23.86,0,0,0,6.24,16A23.9,23.9,0,0,0,48,504H488a16,16,0,0,0,16-16V392a16,16,0,0,0-16-16H360a16,16,0,0,0-16,16v96H328V392a16,16,0,0,0-16-16H184a16,16,0,0,0-16,16v96H134.53a23.27,23.27,0,0,0-4.77-24A23.81,23.81,0,0,0,136,448V360H488a16,16,0,0,0,16-16V216a16,16,0,0,0-16-16H360a16,16,0,0,0-16,16v96H328V216a16,16,0,0,0-16-16H200V184ZM360,392H488v96H360ZM136,168a15.87,15.87,0,0,0-9.83,3.47A58.39,58.39,0,0,0,107.67,152H488v16ZM360,40H488v96H360ZM184,40H312v96H184Zm-80,80a16,16,0,0,1-16,16H80v29.34c0,2.3-3.42,3.43-4.81,1.6L56,141.34V88h48Zm32-48H74.25l4-16H136ZM48,24H80a24,24,0,0,1,22.53,16H78.25A16,16,0,0,0,62.73,52.13L57.75,72H24V48A24,24,0,0,1,48,24ZM24,92.22V88H40v40.86A49.57,49.57,0,0,1,24,92.22Zm26.7,68.71,11.7,15.6A18.67,18.67,0,0,0,96,165.34v-1.61a42.19,42.19,0,0,1,21.53,30.13l2.47,14.8V232H104a32,32,0,0,1-32-32H56a48.05,48.05,0,0,0,48,48h40a8,8,0,0,1,0,16H104a64.07,64.07,0,0,1-64-64v-9.38a47,47,0,0,1,10.7-29.69ZM166.53,264H168v48H136V280h8A24,24,0,0,0,166.53,264ZM104,280h16v32H40V247.79A79.83,79.83,0,0,0,104,280Zm8,176H88V360H72v96H48a8,8,0,0,1-8-8V359.19A40.11,40.11,0,0,0,71.19,328H120V448a8,8,0,0,1-8,8ZM40,328H54.53A24,24,0,0,1,40,342.53Zm0,152a8,8,0,0,1,8-8H72v16H48A8,8,0,0,1,40,480Zm144-88H312v96H184ZM88,488V472h24a8,8,0,0,1,0,16Zm48-144V328H488v16ZM360,216H488v96H360Zm-48,0v96H184V264a16,16,0,0,0,16-16V216ZM184,248H166.53A24,24,0,0,0,144,232h-8V184h48Z" transform="translate(-8 -8)"/></svg>