<svg xmlns="http://www.w3.org/2000/svg" viewBox="0 0 497.05 492.73"><title>quality</title><path d="M100.94,500.73l-18.76-75L7,444.5,76.54,330.94l13.64,8.36L41.05,419.5l52.77-13.2,13.24,53,54.2-90.68L175,376.8Z" transform="translate(-6.95 -8)"/><path d="M267.06,500.73,193,376.8l13.73-8.21,54.2,90.68,13.24-53L327,419.5l-49.13-80.2,13.64-8.36L361.05,444.5l-75.23-18.8Z" transform="translate(-6.95 -8)"/><path d="M184,328a120,120,0,1,1,88-201.58V55.58l-.35-.2A47.38,47.38,0,0,0,225,55,47.89,47.89,0,0,0,183.6,32,47.38,47.38,0,0,0,143,55a47.33,47.33,0,0,0-46.66.35l-.7.4A47.38,47.38,0,0,0,72,96a47.38,47.38,0,0,0-40.24,23.63l-.4.7A47.38,47.38,0,0,0,31,167,47.39,47.39,0,0,0,8,207.59v.81A47.38,47.38,0,0,0,31,249a47.36,47.36,0,0,0,.35,46.66l.4.7A47.39,47.39,0,0,0,72,320a47.38,47.38,0,0,0,23.63,40.24l.7.4A47.43,47.43,0,0,0,143,361a47.89,47.89,0,0,0,41.38,23A47.38,47.38,0,0,0,225,361a47.41,47.41,0,0,0,46.66-.35l.7-.4A47.39,47.39,0,0,0,296,320a47.35,47.35,0,0,0,40.24-23.63l.4-.7A47.33,47.33,0,0,0,337,249a47.66,47.66,0,0,0,23-41H304A120,120,0,0,1,184,328Z" transform="translate(-6.95 -8)" style="fill:#1c69d4"/><path d="M440,72H328V16H440Z" transform="translate(-6.95 -8)" style="fill:#1c69d4"/><path d="M136,208H120a64.07,64.07,0,0,1,64-64v16A48.05,48.05,0,0,0,136,208Z" transform="translate(-6.95 -8)"/><path d="M472,184H392V144h80Z" transform="translate(-6.95 -8)" style="fill:#1c69d4"/><path d="M360,40h16V72H360Z" transform="translate(-6.95 -8)"/><path d="M392,40h16V72H392Z" transform="translate(-6.95 -8)"/><path d="M472,184H456V168h16Zm-32,0H424V168h16Zm-32,0H392V168h16Z" transform="translate(-6.95 -8)"/><path d="M392,136h80v16H392Z" transform="translate(-6.95 -8)"/><path d="M480,8H288a24,24,0,0,0-24,24v76.31A127.93,127.93,0,1,0,184,336c67.88,0,123.43-53.15,127.59-120H480a24,24,0,0,0,24-24V32A24,24,0,0,0,480,8ZM184,320a112,112,0,1,1,80-190.22v25.27a96,96,0,1,0,15.67,59.37A23.81,23.81,0,0,0,288,216h7.59C291.46,274,243.06,320,184,320Zm80-112a80,80,0,1,1-80-80A80.09,80.09,0,0,1,264,208Zm224-16a8,8,0,0,1-8,8H288a8,8,0,0,1-8-8V32a8,8,0,0,1,8-8H480a8,8,0,0,1,8,8Z" transform="translate(-6.95 -8)"/><path d="M168,267.31l-29.66-29.65,11.32-11.32L168,244.69l66.34-66.35,11.32,11.32Z" transform="translate(-6.95 -8)"/></svg>