<svg xmlns="http://www.w3.org/2000/svg" viewBox="0 0 496 502.44"><title>warranty</title><path d="M280,296H232V256h48Z" transform="translate(-8 -8)" style="fill:#1c69d4"/><path d="M392,120H120V72H392Z" transform="translate(-8 -8)" style="fill:#1c69d4"/><path d="M312,248H200a16,16,0,0,0-16,16V376a16,16,0,0,0,16,16H312a16,16,0,0,0,16-16V264A16,16,0,0,0,312,248ZM200,376V264H312V376Z" transform="translate(-8 -8)"/><path d="M488,8H24A16,16,0,0,0,8,24V312a16,16,0,0,0,16,16H136.41a119.93,119.93,0,0,0,53.83,92.26L163.69,480h41l30.44,30.44L256,454.78l20.87,55.66L307.31,480h41l-26.55-59.74A119.91,119.91,0,0,0,375.59,328H488a16,16,0,0,0,16-16V24A16,16,0,0,0,488,8ZM56,248l24,32H56Zm44,32L56,221.34V56H456V221.34L412,280H369a119.88,119.88,0,0,0-17.22-32H424V168H312V214A119.25,119.25,0,0,0,256,200c-52.13,0-96.47,33.47-113,80Zm356-32v32H432ZM337.3,232a119.18,119.18,0,0,0-9.3-7.77V184h80v48ZM228.87,481.56,211.31,464h-23l15.95-35.9a118.72,118.72,0,0,0,40.41,11.32ZM323.69,464h-23l-17.56,17.56-15.8-42.14a118.72,118.72,0,0,0,40.41-11.32ZM256,424A104,104,0,1,1,360,320,104.13,104.13,0,0,1,256,424ZM488,312H375.59a120.4,120.4,0,0,0-2-16H472V40H40V296h98.42a118.78,118.78,0,0,0-2,16H24V24H488Z" transform="translate(-8 -8)"/><path d="M104,136h80v16H104Z" transform="translate(-8 -8)"/><path d="M200,136H408v16H200Z" transform="translate(-8 -8)"/><path d="M88,168H232v16H88Z" transform="translate(-8 -8)"/><path d="M248,168h16v16H248Z" transform="translate(-8 -8)"/><path d="M280,168h16v16H280Z" transform="translate(-8 -8)"/><path d="M88,200h64v16H88Z" transform="translate(-8 -8)"/><path d="M88,232h48v16H88Z" transform="translate(-8 -8)"/></svg>